G04 EAGLE Gerber RS-274X export*
G75*
%MOMM*%
%FSLAX34Y34*%
%LPD*%
%INTop Copper*%
%IPPOS*%
%AMOC8*
5,1,8,0,0,1.08239X$1,22.5*%
G01*
G04 Define Apertures*
%ADD10C,1.422400*%
%ADD11C,1.930400*%
%ADD12C,1.790700*%
%ADD13C,1.980000*%
%ADD14C,1.260000*%
%ADD15C,1.270000*%
%ADD16C,0.812800*%
%ADD17C,0.756400*%
%ADD18C,2.540000*%
%ADD19C,0.609600*%
D10*
X104500Y166888D02*
X104500Y181112D01*
X129900Y181112D02*
X129900Y166888D01*
X155300Y166888D02*
X155300Y181112D01*
X180700Y181112D02*
X180700Y166888D01*
X206100Y166888D02*
X206100Y181112D01*
X231500Y181112D02*
X231500Y166888D01*
X805500Y753888D02*
X805500Y768112D01*
X830900Y768112D02*
X830900Y753888D01*
X856300Y753888D02*
X856300Y768112D01*
X881700Y768112D02*
X881700Y753888D01*
X907100Y753888D02*
X907100Y768112D01*
X932500Y768112D02*
X932500Y753888D01*
D11*
X121300Y386600D03*
X146700Y386600D03*
X172100Y386600D03*
X197500Y386600D03*
X222900Y386600D03*
X248300Y386600D03*
X273700Y386600D03*
X299100Y386600D03*
X324500Y386600D03*
X349900Y386600D03*
X375300Y386600D03*
X400700Y386600D03*
X426100Y386600D03*
X451500Y386600D03*
X476900Y386600D03*
X121300Y634300D03*
X146700Y634300D03*
X172100Y634300D03*
X197500Y634300D03*
X222900Y634300D03*
X248300Y634300D03*
X273700Y634300D03*
X299100Y634300D03*
X324500Y634300D03*
X349900Y634300D03*
X375300Y634300D03*
X400700Y634300D03*
X426100Y634300D03*
X451500Y634300D03*
X476900Y634300D03*
D12*
X476000Y206254D02*
X476000Y188347D01*
X526000Y188347D02*
X526000Y206254D01*
X600000Y206254D02*
X600000Y188347D01*
X650000Y188347D02*
X650000Y206254D01*
X349000Y204254D02*
X349000Y186347D01*
X399000Y186347D02*
X399000Y204254D01*
X716000Y206254D02*
X716000Y188347D01*
X766000Y188347D02*
X766000Y206254D01*
D13*
X626800Y417100D03*
X626800Y442500D03*
X626800Y467900D03*
X626800Y493300D03*
X626800Y518700D03*
X626800Y544100D03*
X626800Y569500D03*
X626800Y594900D03*
X779200Y594900D03*
X779200Y569500D03*
X779200Y544100D03*
X779200Y518700D03*
X779200Y493300D03*
X779200Y467900D03*
X779200Y442500D03*
X779200Y417100D03*
D12*
X676000Y743347D02*
X676000Y761254D01*
X726000Y761254D02*
X726000Y743347D01*
X835000Y205254D02*
X835000Y187347D01*
X885000Y187347D02*
X885000Y205254D01*
D14*
X693800Y260000D03*
X766200Y260000D03*
X796887Y259916D03*
X869287Y259916D03*
X403800Y720000D03*
X476200Y720000D03*
X283800Y720000D03*
X356200Y720000D03*
D10*
X861900Y467112D02*
X861900Y452888D01*
X887300Y452888D02*
X887300Y467112D01*
X912700Y467112D02*
X912700Y452888D01*
X938100Y452888D02*
X938100Y467112D01*
D15*
X433700Y230000D02*
X399000Y195300D01*
X433700Y230000D02*
X500000Y230000D01*
X526000Y204000D01*
X526000Y197300D01*
X617300Y230000D02*
X650000Y197300D01*
X617300Y230000D02*
X500000Y230000D01*
X733300Y230000D02*
X766000Y197300D01*
X733300Y230000D02*
X617300Y230000D01*
X851300Y230000D02*
X885000Y196300D01*
X851300Y230000D02*
X733300Y230000D01*
X869287Y247987D02*
X869287Y259916D01*
X869287Y247987D02*
X851300Y230000D01*
X869287Y259916D02*
X869287Y320713D01*
X779200Y410800D02*
X779200Y417100D01*
X626800Y417100D01*
X146700Y386600D02*
X129900Y369800D01*
X129900Y174000D01*
X720000Y746300D02*
X726000Y752300D01*
X637976Y555276D02*
X626800Y544100D01*
X637976Y555276D02*
X646388Y555276D01*
X720000Y628888D01*
X720000Y746300D01*
D16*
X907439Y479812D02*
X900000Y472373D01*
X900000Y447627D01*
X869473Y417100D01*
X779200Y417100D01*
X740812Y780812D02*
X849188Y780812D01*
X740812Y780812D02*
X726000Y766000D01*
X726000Y752300D01*
D15*
X869287Y320713D02*
X870000Y320713D01*
D17*
X870000Y320713D03*
X840000Y350000D03*
D15*
X779200Y410800D01*
D16*
X860000Y770000D02*
X849188Y780812D01*
X860000Y770000D02*
X860000Y764700D01*
X856300Y761000D01*
X907439Y479812D02*
X930188Y479812D01*
X940000Y470000D01*
X940000Y461900D02*
X938100Y460000D01*
X940000Y461900D02*
X940000Y470000D01*
D18*
X476000Y197300D02*
X476000Y174000D01*
X500000Y150000D01*
X580000Y150000D01*
X600000Y170000D01*
X600000Y197300D01*
X600000Y170000D02*
X630000Y140000D01*
X690000Y140000D01*
X716000Y166000D01*
X716000Y197300D01*
X476000Y174000D02*
X402000Y100000D01*
X500000Y810000D02*
X110000Y810000D01*
X500000Y810000D02*
X626800Y683200D01*
X626800Y594900D01*
X32129Y732129D02*
X30000Y388897D01*
X32129Y732129D02*
X110000Y810000D01*
X80000Y100000D02*
X402000Y100000D01*
X80000Y100000D02*
X30000Y150000D01*
X30000Y388897D01*
D15*
X283700Y130000D02*
X349000Y195300D01*
X283700Y130000D02*
X210000Y130000D01*
X90000Y130000D01*
X70000Y150000D01*
X70000Y720000D01*
X120000Y770000D01*
X490000Y770000D01*
X206100Y174000D02*
X206100Y133900D01*
X210000Y130000D01*
X881700Y671700D02*
X881700Y761000D01*
X881700Y671700D02*
X810000Y600000D01*
X810000Y549500D01*
X779200Y518700D01*
X660000Y690000D02*
X700000Y730000D01*
X700000Y780000D01*
X881700Y778300D02*
X881700Y761000D01*
X640496Y569500D02*
X626800Y569500D01*
X640496Y569500D02*
X660000Y589004D01*
X660000Y690000D01*
X700000Y780000D02*
X712750Y792750D01*
X867250Y792750D01*
X881700Y778300D01*
X626800Y569500D02*
X600500Y569500D01*
X580000Y590000D01*
X580000Y680000D01*
X490000Y770000D01*
D18*
X835000Y196300D02*
X835000Y185000D01*
X880000Y140000D01*
X930000Y140000D01*
X968946Y178946D01*
X969262Y230005D01*
X969262Y309262D01*
X969757Y309757D01*
X969821Y320063D01*
X969821Y320063D01*
X970000Y800000D02*
X950000Y820000D01*
X690000Y820000D01*
X861900Y501900D02*
X861900Y460000D01*
X676000Y752300D02*
X676000Y806000D01*
X690000Y820000D01*
X890000Y530000D02*
X861900Y501900D01*
X969821Y529821D02*
X969821Y320063D01*
X970000Y530000D02*
X970000Y570000D01*
X970000Y800000D01*
X970000Y530000D02*
X969821Y529821D01*
X930000Y530000D02*
X890000Y530000D01*
X930000Y530000D02*
X970000Y570000D01*
D17*
X670000Y320000D03*
D16*
X690000Y340000D01*
X690000Y400000D01*
D17*
X690000Y400000D03*
X700000Y520000D03*
D16*
X720000Y540000D01*
X720000Y560000D01*
X754900Y594900D01*
X779200Y594900D01*
D17*
X520000Y360000D03*
X520814Y400000D03*
D19*
X520000Y399186D02*
X520000Y360000D01*
X520000Y399186D02*
X520814Y400000D01*
D17*
X700000Y330000D03*
D16*
X710000Y340000D01*
X710000Y400000D01*
D17*
X710000Y400000D03*
X750000Y520000D03*
D16*
X750000Y540300D01*
X779200Y569500D01*
D17*
X570000Y360000D03*
D19*
X560000Y370000D01*
X560000Y400000D01*
D17*
X560000Y400000D03*
X540000Y360000D03*
D19*
X540000Y400000D01*
D17*
X540000Y400000D03*
D15*
X597900Y467900D02*
X626800Y467900D01*
X597900Y467900D02*
X591938Y461938D01*
X591938Y321938D01*
X315844Y258344D02*
X231500Y174000D01*
X315844Y258344D02*
X528344Y258344D01*
X591938Y321938D01*
X180700Y330700D02*
X180700Y174000D01*
X180700Y330700D02*
X222900Y372900D01*
X222900Y386600D01*
D19*
X155300Y174000D02*
X174096Y155204D01*
X185540Y155204D01*
X192384Y162048D01*
X192384Y222384D01*
X230000Y260000D01*
X299100Y329100D01*
X299100Y386600D01*
D16*
X100000Y178500D02*
X104500Y174000D01*
D17*
X580000Y410000D03*
X610000Y410000D03*
D16*
X610000Y430000D01*
X622500Y442500D01*
X626800Y442500D01*
X100000Y386853D02*
X100000Y178500D01*
X100000Y386853D02*
X123147Y410000D01*
X580000Y410000D01*
D15*
X626800Y493300D02*
X830000Y696500D01*
X830000Y760100D01*
X830900Y761000D01*
X810000Y756500D02*
X805500Y761000D01*
X649152Y541052D02*
X626800Y518700D01*
X649152Y541052D02*
X652280Y541052D01*
X810000Y698772D01*
X810000Y756500D01*
D17*
X850000Y430000D03*
D19*
X820000Y430000D01*
D17*
X820000Y430000D03*
D16*
X912700Y392700D02*
X850000Y330000D01*
X912700Y392700D02*
X912700Y460000D01*
X723800Y290000D02*
X693800Y260000D01*
X723800Y290000D02*
X840000Y290000D01*
X850000Y300000D01*
X850000Y330000D01*
X796803Y260000D02*
X796887Y259916D01*
X796803Y260000D02*
X766200Y260000D01*
D17*
X380000Y270000D03*
D19*
X380000Y320000D01*
D17*
X380000Y320000D03*
D15*
X375300Y634300D02*
X360000Y649600D01*
X360000Y720000D01*
X356200Y720000D01*
X400700Y634300D02*
X476200Y709800D01*
X476200Y720000D01*
M02*
