G04 EAGLE Gerber RS-274X export*
G75*
%MOMM*%
%FSLAX34Y34*%
%LPD*%
%IN*%
%IPPOS*%
%AMOC8*
5,1,8,0,0,1.08239X$1,22.5*%
G01*
G04 Define Apertures*
%ADD10C,0.254000*%
D10*
X5000Y44000D02*
X991000Y49000D01*
X996000Y855000D01*
X10000Y850000D01*
X5000Y44000D01*
X617658Y809422D02*
X617658Y810578D01*
X617582Y811732D01*
X617431Y812878D01*
X617206Y814012D01*
X616906Y815128D01*
X616535Y816223D01*
X616092Y817291D01*
X615581Y818328D01*
X615003Y819329D01*
X614361Y820291D01*
X613657Y821208D01*
X612895Y822077D01*
X612077Y822895D01*
X611208Y823657D01*
X610291Y824361D01*
X609329Y825003D01*
X608328Y825581D01*
X607291Y826092D01*
X606223Y826535D01*
X605128Y826906D01*
X604012Y827206D01*
X602878Y827431D01*
X601732Y827582D01*
X600578Y827658D01*
X599422Y827658D01*
X598268Y827582D01*
X597122Y827431D01*
X595988Y827206D01*
X594872Y826906D01*
X593777Y826535D01*
X592709Y826092D01*
X591672Y825581D01*
X590671Y825003D01*
X589709Y824361D01*
X588792Y823657D01*
X587923Y822895D01*
X587105Y822077D01*
X586343Y821208D01*
X585639Y820291D01*
X584997Y819329D01*
X584419Y818328D01*
X583908Y817291D01*
X583465Y816223D01*
X583094Y815128D01*
X582794Y814012D01*
X582569Y812878D01*
X582418Y811732D01*
X582342Y810578D01*
X582342Y809422D01*
X582418Y808268D01*
X582569Y807122D01*
X582794Y805988D01*
X583094Y804872D01*
X583465Y803777D01*
X583908Y802709D01*
X584419Y801672D01*
X584997Y800671D01*
X585639Y799709D01*
X586343Y798792D01*
X587105Y797923D01*
X587923Y797105D01*
X588792Y796343D01*
X589709Y795639D01*
X590671Y794997D01*
X591672Y794419D01*
X592709Y793908D01*
X593777Y793465D01*
X594872Y793094D01*
X595988Y792794D01*
X597122Y792569D01*
X598268Y792418D01*
X599422Y792342D01*
X600578Y792342D01*
X601732Y792418D01*
X602878Y792569D01*
X604012Y792794D01*
X605128Y793094D01*
X606223Y793465D01*
X607291Y793908D01*
X608328Y794419D01*
X609329Y794997D01*
X610291Y795639D01*
X611208Y796343D01*
X612077Y797105D01*
X612895Y797923D01*
X613657Y798792D01*
X614361Y799709D01*
X615003Y800671D01*
X615581Y801672D01*
X616092Y802709D01*
X616535Y803777D01*
X616906Y804872D01*
X617206Y805988D01*
X617431Y807122D01*
X617582Y808268D01*
X617658Y809422D01*
X967658Y89422D02*
X967658Y90578D01*
X967582Y91732D01*
X967431Y92878D01*
X967206Y94012D01*
X966906Y95128D01*
X966535Y96223D01*
X966092Y97291D01*
X965581Y98328D01*
X965003Y99329D01*
X964361Y100291D01*
X963657Y101208D01*
X962895Y102077D01*
X962077Y102895D01*
X961208Y103657D01*
X960291Y104361D01*
X959329Y105003D01*
X958328Y105581D01*
X957291Y106092D01*
X956223Y106535D01*
X955128Y106906D01*
X954012Y107206D01*
X952878Y107431D01*
X951732Y107582D01*
X950578Y107658D01*
X949422Y107658D01*
X948268Y107582D01*
X947122Y107431D01*
X945988Y107206D01*
X944872Y106906D01*
X943777Y106535D01*
X942709Y106092D01*
X941672Y105581D01*
X940671Y105003D01*
X939709Y104361D01*
X938792Y103657D01*
X937923Y102895D01*
X937105Y102077D01*
X936343Y101208D01*
X935639Y100291D01*
X934997Y99329D01*
X934419Y98328D01*
X933908Y97291D01*
X933465Y96223D01*
X933094Y95128D01*
X932794Y94012D01*
X932569Y92878D01*
X932418Y91732D01*
X932342Y90578D01*
X932342Y89422D01*
X932418Y88268D01*
X932569Y87122D01*
X932794Y85988D01*
X933094Y84872D01*
X933465Y83777D01*
X933908Y82709D01*
X934419Y81672D01*
X934997Y80671D01*
X935639Y79709D01*
X936343Y78792D01*
X937105Y77923D01*
X937923Y77105D01*
X938792Y76343D01*
X939709Y75639D01*
X940671Y74997D01*
X941672Y74419D01*
X942709Y73908D01*
X943777Y73465D01*
X944872Y73094D01*
X945988Y72794D01*
X947122Y72569D01*
X948268Y72418D01*
X949422Y72342D01*
X950578Y72342D01*
X951732Y72418D01*
X952878Y72569D01*
X954012Y72794D01*
X955128Y73094D01*
X956223Y73465D01*
X957291Y73908D01*
X958328Y74419D01*
X959329Y74997D01*
X960291Y75639D01*
X961208Y76343D01*
X962077Y77105D01*
X962895Y77923D01*
X963657Y78792D01*
X964361Y79709D01*
X965003Y80671D01*
X965581Y81672D01*
X966092Y82709D01*
X966535Y83777D01*
X966906Y84872D01*
X967206Y85988D01*
X967431Y87122D01*
X967582Y88268D01*
X967658Y89422D01*
X57658Y79422D02*
X57658Y80578D01*
X57582Y81732D01*
X57431Y82878D01*
X57206Y84012D01*
X56906Y85128D01*
X56535Y86223D01*
X56092Y87291D01*
X55581Y88328D01*
X55003Y89329D01*
X54361Y90291D01*
X53657Y91208D01*
X52895Y92077D01*
X52077Y92895D01*
X51208Y93657D01*
X50291Y94361D01*
X49329Y95003D01*
X48328Y95581D01*
X47291Y96092D01*
X46223Y96535D01*
X45128Y96906D01*
X44012Y97206D01*
X42878Y97431D01*
X41732Y97582D01*
X40578Y97658D01*
X39422Y97658D01*
X38268Y97582D01*
X37122Y97431D01*
X35988Y97206D01*
X34872Y96906D01*
X33777Y96535D01*
X32709Y96092D01*
X31672Y95581D01*
X30671Y95003D01*
X29709Y94361D01*
X28792Y93657D01*
X27923Y92895D01*
X27105Y92077D01*
X26343Y91208D01*
X25639Y90291D01*
X24997Y89329D01*
X24419Y88328D01*
X23908Y87291D01*
X23465Y86223D01*
X23094Y85128D01*
X22794Y84012D01*
X22569Y82878D01*
X22418Y81732D01*
X22342Y80578D01*
X22342Y79422D01*
X22418Y78268D01*
X22569Y77122D01*
X22794Y75988D01*
X23094Y74872D01*
X23465Y73777D01*
X23908Y72709D01*
X24419Y71672D01*
X24997Y70671D01*
X25639Y69709D01*
X26343Y68792D01*
X27105Y67923D01*
X27923Y67105D01*
X28792Y66343D01*
X29709Y65639D01*
X30671Y64997D01*
X31672Y64419D01*
X32709Y63908D01*
X33777Y63465D01*
X34872Y63094D01*
X35988Y62794D01*
X37122Y62569D01*
X38268Y62418D01*
X39422Y62342D01*
X40578Y62342D01*
X41732Y62418D01*
X42878Y62569D01*
X44012Y62794D01*
X45128Y63094D01*
X46223Y63465D01*
X47291Y63908D01*
X48328Y64419D01*
X49329Y64997D01*
X50291Y65639D01*
X51208Y66343D01*
X52077Y67105D01*
X52895Y67923D01*
X53657Y68792D01*
X54361Y69709D01*
X55003Y70671D01*
X55581Y71672D01*
X56092Y72709D01*
X56535Y73777D01*
X56906Y74872D01*
X57206Y75988D01*
X57431Y77122D01*
X57582Y78268D01*
X57658Y79422D01*
M02*
