0
SECTION
2
HEADER
9
$INSUNITS
70
4
9
$ACADVER
1
AC1014
9
$HANDSEED
5
FFFF
0
ENDSEC
0
SECTION
2
TABLES
0
TABLE
2
VPORT
5
8
100
AcDbSymbolTable
0
ENDTAB
0
TABLE
2
LTYPE
5
5
100
AcDbSymbolTable
0
LTYPE
5
14
100
AcDbSymbolTableRecord
100
AcDbLinetypeTableRecord
2
BYBLOCK
70
0
0
LTYPE
5
15
100
AcDbSymbolTableRecord
100
AcDbLinetypeTableRecord
2
BYLAYER
70
0
0
LTYPE
5
16
100
AcDbSymbolTableRecord
100
AcDbLinetypeTableRecord
2
DASHED
70
0
3
Dashed __ __ __ __ __ __ __ __ __ __ __ __ __ _
72
65
73
2
40
0.75
49
0.5
74
0
49
-0.25
74
0
0
ENDTAB
0
TABLE
2
LAYER
5
2
100
AcDbSymbolTable
70
2
0
LAYER
5
50
100
AcDbSymbolTableRecord
100
AcDbLayerTableRecord
2
0
70
0
62
7
6
CONTINUOUS
0
ENDTAB
0
TABLE
2
STYLE
5
3
100
AcDbSymbolTable
70
1
0
STYLE
5
11
100
AcDbSymbolTableRecord
100
AcDbTextStyleTableRecord
2
STANDARD
70
0
0
ENDTAB
0
TABLE
2
VIEW
5
6
100
AcDbSymbolTable
70
0
0
ENDTAB
0
TABLE
2
UCS
5
7
100
AcDbSymbolTable
70
0
0
ENDTAB
0
TABLE
2
APPID
5
9
100
AcDbSymbolTable
70
2
0
APPID
5
12
100
AcDbSymbolTableRecord
100
AcDbRegAppTableRecord
2
ACAD
70
0
0
ENDTAB
0
TABLE
2
DIMSTYLE
5
A
100
AcDbSymbolTable
70
1
0
ENDTAB
0
TABLE
2
BLOCK_RECORD
5
1
100
AcDbSymbolTable
70
1
0
BLOCK_RECORD
5
1F
100
AcDbSymbolTableRecord
100
AcDbBlockTableRecord
2
*MODEL_SPACE
0
BLOCK_RECORD
5
1B
100
AcDbSymbolTableRecord
100
AcDbBlockTableRecord
2
*PAPER_SPACE
0
ENDTAB
0
ENDSEC
0
SECTION
2
BLOCKS
0
BLOCK
5
20
100
AcDbEntity
100
AcDbBlockBegin
2
*MODEL_SPACE
0
ENDBLK
5
21
100
AcDbEntity
100
AcDbBlockEnd
0
BLOCK
5
1C
100
AcDbEntity
100
AcDbBlockBegin
2
*PAPER_SPACE
0
ENDBLK
5
1D
100
AcDbEntity
100
AcDbBlockEnd
0
ENDSEC
0
SECTION
2
ENTITIES
0
CIRCLE
5
100
100
AcDbEntity
8
0
100
AcDbCircle
10
-161.99999999999994
20
92.500000000000071
30
0
40
1.3499999999999801
210
-6.0379748909462206e-48
220
-0
230
1
0
CIRCLE
5
101
100
AcDbEntity
8
0
100
AcDbCircle
10
55.999999999999986
20
7.5000000000000178
30
0
40
1.3499999999999979
210
-6.0379748909462206e-48
220
-0
230
1
0
CIRCLE
5
102
100
AcDbEntity
8
0
100
AcDbCircle
10
-156
20
7.5000000000000178
30
0
40
1.3499999999999979
210
-6.0379748909462206e-48
220
-0
230
1
0
CIRCLE
5
103
100
AcDbEntity
8
0
100
AcDbCircle
10
58.5
20
55.999999999999979
30
0
40
1.3500000000000068
210
-6.0379748909462206e-48
220
-0
230
1
0
LWPOLYLINE
5
104
100
AcDbEntity
8
0
100
AcDbPolyline
90
4
70
1
43
0.0
10
-75.999999999999986
20
65.000000000000014
10
-85.999999999999972
20
65.000000000000014
10
-86
20
75.000000000000014
10
-76
20
75.000000000000014
0
LWPOLYLINE
5
105
100
AcDbEntity
8
0
100
AcDbPolyline
90
4
70
1
43
0.0
10
-5.9999999999999956
20
35.000000000000007
10
4.0000000000000133
20
35.000000000000007
10
4.0000000000000115
20
25.000000000000018
10
-5.9999999999999876
20
25.000000000000021
0
LWPOLYLINE
5
106
100
AcDbEntity
8
0
100
AcDbPolyline
90
4
70
1
43
0.0
10
-45.999999999999986
20
35.000000000000007
10
-35.999999999999986
20
35.000000000000007
10
-35.999999999999986
20
25.000000000000018
10
-45.999999999999979
20
25.000000000000018
0
LWPOLYLINE
5
107
100
AcDbEntity
8
0
100
AcDbPolyline
90
4
70
1
43
0.0
10
54.000000000000014
20
25.000000000000007
10
64.000000953674331
20
25.000000000000007
10
64.000000953674331
20
15.000000223517427
10
54.000000000000021
20
15.000000000000027
0
LWPOLYLINE
5
108
100
AcDbEntity
8
0
100
AcDbPolyline
90
4
70
1
43
0.0
10
-65.999999999999986
20
25.000000000000007
10
-55.999999999999979
20
25.000000000000007
10
-55.999999999999979
20
15.000000000000027
10
-65.999999999999972
20
15.000000000000027
0
LWPOLYLINE
5
109
100
AcDbEntity
8
0
100
AcDbPolyline
90
9
70
1
43
0.0
10
-64.000000871717916
20
65.499998535960799
10
-64.000000773714106
20
75.000000000000014
10
-64.000000670552225
20
85.000000000000028
10
-63.999999999999986
20
101.00000005673905
10
-170
20
101.00000000000001
10
-170
20
5.0000000000000178
10
70
20
5.0000000000000089
10
70.000000000000028
20
59.999998535960927
10
-63.999999999999986
20
60.000000000000007
0
LWPOLYLINE
5
110
100
AcDbEntity
8
0
100
AcDbPolyline
90
4
70
1
43
0.0
10
54.000000000000014
20
35.000000000000007
10
54.000000000000014
20
45.000000000000007
10
64.000000953674331
20
45.000000000000007
10
64.000000953674331
20
35.000000000000007
0
LWPOLYLINE
5
111
100
AcDbEntity
8
0
100
AcDbPolyline
90
4
70
1
43
0.0
10
34
20
35.000000000000007
10
44
20
35.000000000000007
10
44.000000000000014
20
25.000000000000018
10
34.000000000000014
20
25.000000000000018
0
LWPOLYLINE
5
112
100
AcDbEntity
8
0
100
AcDbPolyline
90
4
70
1
43
0.0
10
34
20
45.000000000000007
10
34
20
55.000000000000007
10
44
20
55.000000000000007
10
44.000000000000014
20
45.000000000000007
0
LWPOLYLINE
5
113
100
AcDbEntity
8
0
100
AcDbPolyline
90
4
70
1
43
0.0
10
24.000000000000014
20
35.000000000000007
10
14.000000000000004
20
35.000000000000007
10
14.000000000000004
20
45.000000000000007
10
24.000000000000018
20
45.000000000000007
0
LWPOLYLINE
5
114
100
AcDbEntity
8
0
100
AcDbPolyline
90
4
70
1
43
0.0
10
14.000000000000004
20
25.000000000000007
10
24.000000000000018
20
25.000000000000007
10
24.000000000000014
20
15.000000000000027
10
14.000000000000011
20
15.000000000000027
0
LWPOLYLINE
5
115
100
AcDbEntity
8
0
100
AcDbPolyline
90
4
70
1
43
0.0
10
-5.9999999999999956
20
45.000000000000007
10
-5.9999999999999956
20
55.000000000000007
10
4.0000000000000133
20
55.000000000000007
10
4.0000000000000133
20
45.000000000000007
0
LWPOLYLINE
5
116
100
AcDbEntity
8
0
100
AcDbPolyline
90
4
70
1
43
0.0
10
-15.999999999999993
20
35.000000000000007
10
-25.999999999999996
20
35.000000000000007
10
-25.999999999999996
20
45.000000000000007
10
-15.999999999999993
20
45.000000000000007
0
LWPOLYLINE
5
117
100
AcDbEntity
8
0
100
AcDbPolyline
90
4
70
1
43
0.0
10
-25.999999999999996
20
25.000000000000007
10
-15.999999999999993
20
25.000000000000007
10
-15.999999999999993
20
15.000000000000027
10
-25.999999999999993
20
15.000000000000027
0
LWPOLYLINE
5
118
100
AcDbEntity
8
0
100
AcDbPolyline
90
4
70
1
43
0.0
10
-45.999999999999986
20
45.000000000000007
10
-45.999999999999986
20
55.000000000000007
10
-35.999999999999986
20
55.000000000000007
10
-35.999999999999986
20
45.000000000000007
0
LWPOLYLINE
5
119
100
AcDbEntity
8
0
100
AcDbPolyline
90
4
70
1
43
0.0
10
-65.999999999999986
20
35.000000000000007
10
-65.999999999999986
20
45.000000000000007
10
-55.999999999999979
20
45.000000000000007
10
-55.999999999999979
20
35.000000000000007
0
LWPOLYLINE
5
120
100
AcDbEntity
8
0
100
AcDbPolyline
90
4
70
1
43
0.0
10
-75.999999999999986
20
45.000000000000007
10
-85.999999999999972
20
45.000000000000007
10
-86
20
55.000000000000007
10
-76
20
55.000000000000007
0
LWPOLYLINE
5
121
100
AcDbEntity
8
0
100
AcDbPolyline
90
4
70
1
43
0.0
10
-86
20
35.000000000000007
10
-76
20
35.000000000000007
10
-75.999999999999986
20
25.000000000000018
10
-85.999999999999972
20
25.000000000000007
0
LWPOLYLINE
5
122
100
AcDbEntity
8
0
100
AcDbPolyline
90
4
70
1
43
0.0
10
-146.00000217556953
20
14.999999999999966
10
-146.00000217556953
20
24.999999999999979
10
-135.99999999999994
20
24.999999999999982
10
-135.99999999999994
20
14.999999999999975
0
LWPOLYLINE
5
123
100
AcDbEntity
8
0
100
AcDbPolyline
90
4
70
1
43
0.0
10
-115.99999999999994
20
25
10
-125.99999999999994
20
24.999999999999993
10
-125.99999999999996
20
34.999999999999993
10
-115.99999999999996
20
35
0
LWPOLYLINE
5
124
100
AcDbEntity
8
0
100
AcDbPolyline
90
4
70
1
43
0.0
10
-95.999999999999972
20
55.000000000000007
10
-105.99999999999996
20
55
10
-105.99999999999997
20
65
10
-95.999999999999972
20
65.000000000000014
0
LWPOLYLINE
5
125
100
AcDbEntity
8
0
100
AcDbPolyline
90
4
70
1
43
0.0
10
-95.999999999999957
20
35.000000000000014
10
-105.99999999999994
20
35.000000000000007
10
-105.99999999999996
20
45
10
-95.999999999999957
20
45.000000000000007
0
LWPOLYLINE
5
126
100
AcDbEntity
8
0
100
AcDbPolyline
90
4
70
1
43
0.0
10
-115.99999999999996
20
44.999999999999993
10
-125.99999999999996
20
44.999999999999993
10
-125.99999999999997
20
54.999999999999993
10
-115.99999999999997
20
54.999999999999993
0
LWPOLYLINE
5
127
100
AcDbEntity
8
0
100
AcDbPolyline
90
4
70
1
43
0.0
10
-146.00000217556953
20
34.999999999999979
10
-146.00000217556953
20
44.999999999999972
10
-135.99999999999997
20
44.999999999999986
10
-135.99999999999997
20
34.999999999999986
0
LWPOLYLINE
5
128
100
AcDbEntity
8
0
100
AcDbPolyline
90
4
70
1
43
0.0
10
-146.00000217556953
20
74.999999999999986
10
-146.00000217556953
20
85
10
-136
20
85
10
-136
20
75
0
LWPOLYLINE
5
129
100
AcDbEntity
8
0
100
AcDbPolyline
90
4
70
1
43
0.0
10
-96
20
75.000000000000014
10
-105.99999999999997
20
75.000000000000014
10
-106
20
85
10
-96
20
85.000000000000014
0
LWPOLYLINE
5
130
100
AcDbEntity
8
0
100
AcDbPolyline
90
4
70
1
43
0.0
10
-95.999999999999943
20
15.000000000000009
10
-105.99999999999993
20
15
10
-105.99999999999994
20
25.000000000000007
10
-95.999999999999943
20
25.000000000000014
0
LWPOLYLINE
5
131
100
AcDbEntity
8
0
100
AcDbPolyline
90
4
70
1
43
0.0
10
-115.99999999999997
20
64.999999999999986
10
-125.99999999999997
20
64.999999999999986
10
-126
20
75
10
-116
20
75
0
LWPOLYLINE
5
132
100
AcDbEntity
8
0
100
AcDbPolyline
90
4
70
1
43
0.0
10
-146.00000217556953
20
54.999999999999972
10
-146.00000217556953
20
64.999999999999972
10
-135.99999999999997
20
64.999999999999986
10
-135.99999999999997
20
54.999999999999986
0
ENDSEC
0
SECTION
2
OBJECTS
0
DICTIONARY
5
C
100
AcDbDictionary
3
ACAD_GROUP
350
D
3
ACAD_MLINESTYLE
350
17
0
DICTIONARY
5
D
100
AcDbDictionary
0
DICTIONARY
5
1A
330
C
100
AcDbDictionary
0
DICTIONARY
5
17
100
AcDbDictionary
0
ENDSEC
0
EOF
