0
SECTION
2
HEADER
9
$INSUNITS
70
4
9
$ACADVER
1
AC1014
9
$HANDSEED
5
FFFF
0
ENDSEC
0
SECTION
2
TABLES
0
TABLE
2
VPORT
5
8
100
AcDbSymbolTable
0
ENDTAB
0
TABLE
2
LTYPE
5
5
100
AcDbSymbolTable
0
LTYPE
5
14
100
AcDbSymbolTableRecord
100
AcDbLinetypeTableRecord
2
BYBLOCK
70
0
0
LTYPE
5
15
100
AcDbSymbolTableRecord
100
AcDbLinetypeTableRecord
2
BYLAYER
70
0
0
LTYPE
5
16
100
AcDbSymbolTableRecord
100
AcDbLinetypeTableRecord
2
DASHED
70
0
3
Dashed __ __ __ __ __ __ __ __ __ __ __ __ __ _
72
65
73
2
40
0.75
49
0.5
74
0
49
-0.25
74
0
0
ENDTAB
0
TABLE
2
LAYER
5
2
100
AcDbSymbolTable
70
2
0
LAYER
5
50
100
AcDbSymbolTableRecord
100
AcDbLayerTableRecord
2
0
70
0
62
7
6
CONTINUOUS
0
ENDTAB
0
TABLE
2
STYLE
5
3
100
AcDbSymbolTable
70
1
0
STYLE
5
11
100
AcDbSymbolTableRecord
100
AcDbTextStyleTableRecord
2
STANDARD
70
0
0
ENDTAB
0
TABLE
2
VIEW
5
6
100
AcDbSymbolTable
70
0
0
ENDTAB
0
TABLE
2
UCS
5
7
100
AcDbSymbolTable
70
0
0
ENDTAB
0
TABLE
2
APPID
5
9
100
AcDbSymbolTable
70
2
0
APPID
5
12
100
AcDbSymbolTableRecord
100
AcDbRegAppTableRecord
2
ACAD
70
0
0
ENDTAB
0
TABLE
2
DIMSTYLE
5
A
100
AcDbSymbolTable
70
1
0
ENDTAB
0
TABLE
2
BLOCK_RECORD
5
1
100
AcDbSymbolTable
70
1
0
BLOCK_RECORD
5
1F
100
AcDbSymbolTableRecord
100
AcDbBlockTableRecord
2
*MODEL_SPACE
0
BLOCK_RECORD
5
1B
100
AcDbSymbolTableRecord
100
AcDbBlockTableRecord
2
*PAPER_SPACE
0
ENDTAB
0
ENDSEC
0
SECTION
2
BLOCKS
0
BLOCK
5
20
100
AcDbEntity
100
AcDbBlockBegin
2
*MODEL_SPACE
0
ENDBLK
5
21
100
AcDbEntity
100
AcDbBlockEnd
0
BLOCK
5
1C
100
AcDbEntity
100
AcDbBlockBegin
2
*PAPER_SPACE
0
ENDBLK
5
1D
100
AcDbEntity
100
AcDbBlockEnd
0
ENDSEC
0
SECTION
2
ENTITIES
0
LWPOLYLINE
5
100
100
AcDbEntity
8
0
100
AcDbPolyline
90
4
70
1
43
0.0
10
-114.84999999999992
20
47.299999999999976
10
-114.84999999999994
20
24.999999999999943
10
-127.14999999999995
20
24.999999999999936
10
-127.14999999999992
20
47.299999999999969
0
LWPOLYLINE
5
101
100
AcDbEntity
8
0
100
AcDbPolyline
90
4
70
1
43
0.0
10
-65.999999999999972
20
24.999999999999968
10
-55.999999999999957
20
24.999999999999932
10
-55.999999999999957
20
15.000000111758652
10
-66.000000000000625
20
14.999999999999989
0
LWPOLYLINE
5
102
100
AcDbEntity
8
0
100
AcDbPolyline
90
4
70
1
43
0.0
10
-55.999999999999957
20
34.999999999999936
10
-65.999999999999972
20
34.999999999999972
10
-65.999999999999972
20
44.999999999999964
10
-55.999999999999957
20
44.999999999999936
0
LWPOLYLINE
5
103
100
AcDbEntity
8
0
100
AcDbPolyline
90
4
70
1
43
0.0
10
34.000000000000021
20
34.999999999999972
10
44.000000000000043
20
34.999999999999936
10
44.000000000000043
20
24.999999999999943
10
33.999999999999382
20
24.999999999999979
0
LWPOLYLINE
5
104
100
AcDbEntity
8
0
100
AcDbPolyline
90
4
70
1
43
0.0
10
-5.9999999999999796
20
34.999999999999972
10
4.0000000000000382
20
34.999999999999936
10
4.0000000000000373
20
24.999999999999943
10
-6.0000000000006199
20
24.999999999999982
0
LWPOLYLINE
5
105
100
AcDbEntity
8
0
100
AcDbPolyline
90
4
70
1
43
0.0
10
-45.999999999999979
20
34.999999999999972
10
-35.999999999999957
20
34.999999999999936
10
-35.999999999999957
20
24.999999999999932
10
-46.000000000000618
20
24.999999999999979
0
LWPOLYLINE
5
106
100
AcDbEntity
8
0
100
AcDbPolyline
90
5
70
1
43
0.0
10
54.000000894067703
20
24.999999999999968
10
64.000000894067711
20
24.999999999999932
10
64.000000894067711
20
15.000000223517386
10
60.000000894069686
20
15.000000223517389
10
53.999999999999382
20
14.999999999999989
0
LWPOLYLINE
5
107
100
AcDbEntity
8
0
100
AcDbPolyline
90
4
70
1
43
0.0
10
54.000000894067703
20
34.999999999999972
10
54.000000894067703
20
44.999999999999964
10
64.000000894067711
20
44.999999999999936
10
64.000000894067711
20
34.999999999999936
0
LWPOLYLINE
5
108
100
AcDbEntity
8
0
100
AcDbPolyline
90
4
70
1
43
0.0
10
34.000000000000021
20
44.999999999999972
10
34.000000000000021
20
54.999999999999972
10
44.000000000000043
20
54.999999999999936
10
44.000000000000043
20
44.999999999999936
0
LWPOLYLINE
5
109
100
AcDbEntity
8
0
100
AcDbPolyline
90
4
70
1
43
0.0
10
14.00000000000002
20
24.999999999999968
10
24.000000000000039
20
24.999999999999932
10
24.000000000000039
20
15.000000223517386
10
13.999999999999382
20
14.999999999999989
0
LWPOLYLINE
5
110
100
AcDbEntity
8
0
100
AcDbPolyline
90
4
70
1
43
0.0
10
14.00000000000002
20
34.999999999999972
10
14.00000000000002
20
44.999999999999964
10
24.000000000000039
20
44.999999999999936
10
24.000000000000039
20
34.999999999999936
0
LWPOLYLINE
5
111
100
AcDbEntity
8
0
100
AcDbPolyline
90
4
70
1
43
0.0
10
-5.9999999999999796
20
44.999999999999972
10
-5.9999999999999796
20
54.999999999999972
10
4.0000000000000382
20
54.999999999999936
10
4.0000000000000373
20
44.999999999999936
0
LWPOLYLINE
5
112
100
AcDbEntity
8
0
100
AcDbPolyline
90
4
70
1
43
0.0
10
-25.999999999999979
20
24.999999999999968
10
-15.999999999999961
20
24.999999999999932
10
-15.999999999999963
20
15.000000223517386
10
-26.000000000000625
20
14.999999999999989
0
LWPOLYLINE
5
113
100
AcDbEntity
8
0
100
AcDbPolyline
90
4
70
1
43
0.0
10
-25.999999999999979
20
34.999999999999972
10
-25.999999999999979
20
44.999999999999964
10
-15.999999999999961
20
44.999999999999936
10
-15.999999999999963
20
34.999999999999936
0
LWPOLYLINE
5
114
100
AcDbEntity
8
0
100
AcDbPolyline
90
4
70
1
43
0.0
10
-45.999999999999979
20
44.999999999999972
10
-45.999999999999979
20
54.999999999999972
10
-35.999999999999957
20
54.999999999999936
10
-35.999999999999957
20
44.999999999999936
0
LWPOLYLINE
5
115
100
AcDbEntity
8
0
100
AcDbPolyline
90
13
70
1
43
0.0
10
-63.999999999999979
20
59.999999999999972
10
-63.999998692423084
20
150.00000073015499
10
-170.00000253319737
20
150.00000073015502
10
-170
20
4.9999999999999645
10
70
20
4.9999999999999707
10
70.000000000000057
20
60.000003111083032
10
64.000000894067711
20
60.000003111083025
10
54.000000894067703
20
59.999999999999972
10
24.000000000000028
20
60.000003111083025
10
14.000000000000021
20
59.999999999999972
10
-15.999999999999968
20
60.000003111083025
10
-25.999999999999979
20
59.999999999999972
10
-55.999999999999957
20
60.000003111083025
0
CIRCLE
5
116
100
AcDbEntity
8
0
100
AcDbCircle
10
-72.492663858785136
20
108.99999999999994
30
1.7763568394002505e-14
40
1.5000000000000036
210
6.0379748909462206e-48
220
1.6418836564845167e-79
230
1
0
CIRCLE
5
117
100
AcDbEntity
8
0
100
AcDbCircle
10
-155.99999999999991
20
108.99999999999997
30
0
40
1.5000000000000036
210
6.0379748909462206e-48
220
1.6418836564845167e-79
230
1
0
CIRCLE
5
118
100
AcDbEntity
8
0
100
AcDbCircle
10
58.500000000000078
20
56.000000834464942
30
-1.7763568394002505e-14
40
1.3499999999999979
210
6.0379748909462206e-48
220
-0
230
1
0
CIRCLE
5
119
100
AcDbEntity
8
0
100
AcDbCircle
10
56.007336141214878
20
7.4999999999999387
30
0
40
1.3499999999999979
210
6.0379748909462206e-48
220
-0
230
1
0
LWPOLYLINE
5
120
100
AcDbEntity
8
0
100
AcDbPolyline
90
4
70
1
43
0.0
10
-135.99999999999991
20
84.999999999999972
10
-135.99999999999991
20
74.999999999999972
10
-145.99999999999991
20
74.999999999999972
10
-145.99999999999991
20
84.999999999999972
0
LWPOLYLINE
5
121
100
AcDbEntity
8
0
100
AcDbPolyline
90
4
70
1
43
0.0
10
-105.99999999999993
20
64.999999999999972
10
-95.999999999999943
20
64.999999999999972
10
-95.999999999999943
20
54.999999999999957
10
-105.99999999999993
20
54.999999999999957
0
LWPOLYLINE
5
122
100
AcDbEntity
8
0
100
AcDbPolyline
90
4
70
1
43
0.0
10
-85.999999999999957
20
24.999999999999936
10
-85.999999999999943
20
34.999999999999972
10
-75.999999999999957
20
34.999999999999972
10
-75.999999999999957
20
24.999999999999936
0
LWPOLYLINE
5
123
100
AcDbEntity
8
0
100
AcDbPolyline
90
4
70
1
43
0.0
10
-85.999999999999943
20
74.999999999999972
10
-75.999999999999957
20
74.999999999999972
10
-75.999999999999957
20
64.999999999999972
10
-85.999999999999943
20
64.999999999999972
0
LWPOLYLINE
5
124
100
AcDbEntity
8
0
100
AcDbPolyline
90
4
70
1
43
0.0
10
-105.99999999999993
20
84.999999999999972
10
-95.999999999999943
20
84.999999999999972
10
-95.999999999999943
20
74.999999999999972
10
-105.99999999999993
20
74.999999999999972
0
LWPOLYLINE
5
125
100
AcDbEntity
8
0
100
AcDbPolyline
90
4
70
1
43
0.0
10
-135.99999999999994
20
24.999999999999936
10
-135.99999999999994
20
14.999999999999979
10
-145.99999999999994
20
14.999999999999984
10
-145.99999999999994
20
24.999999999999936
0
LWPOLYLINE
5
126
100
AcDbEntity
8
0
100
AcDbPolyline
90
4
70
1
43
0.0
10
-145.99999999999991
20
64.999999999999972
10
-135.99999999999991
20
64.999999999999972
10
-135.99999999999991
20
54.999999999999964
10
-145.99999999999991
20
54.999999999999964
0
LWPOLYLINE
5
127
100
AcDbEntity
8
0
100
AcDbPolyline
90
4
70
1
43
0.0
10
-105.99999999999993
20
34.999999999999972
10
-105.99999999999993
20
44.999999999999943
10
-95.999999999999943
20
44.999999999999943
10
-95.999999999999943
20
34.999999999999972
0
LWPOLYLINE
5
128
100
AcDbEntity
8
0
100
AcDbPolyline
90
4
70
1
43
0.0
10
-85.999999999999943
20
44.999999999999943
10
-85.999999999999943
20
54.999999999999943
10
-75.999999999999957
20
54.999999999999972
10
-75.999999999999957
20
44.999999999999936
0
LWPOLYLINE
5
129
100
AcDbEntity
8
0
100
AcDbPolyline
90
4
70
1
43
0.0
10
-105.99999999999994
20
14.999999999999966
10
-105.99999999999994
20
24.999999999999936
10
-95.999999999999943
20
24.999999999999936
10
-95.999999999999943
20
14.999999999999964
0
LWPOLYLINE
5
130
100
AcDbEntity
8
0
100
AcDbPolyline
90
4
70
1
43
0.0
10
-125.99999999999993
20
74.999999999999972
10
-115.99999999999993
20
74.999999999999972
10
-115.99999999999993
20
64.999999999999972
10
-125.99999999999993
20
64.999999999999972
0
LWPOLYLINE
5
131
100
AcDbEntity
8
0
100
AcDbPolyline
90
4
70
1
43
0.0
10
-135.99999999999991
20
44.999999999999964
10
-135.99999999999991
20
34.999999999999972
10
-145.99999999999991
20
34.999999999999972
10
-145.99999999999991
20
44.999999999999964
0
CIRCLE
5
132
100
AcDbEntity
8
0
100
AcDbCircle
10
-155.99999999999997
20
7.4999999999999698
30
0
40
1.5000000000000036
210
6.0379748909462206e-48
220
1.6418836564845167e-79
230
1
0
ENDSEC
0
SECTION
2
OBJECTS
0
DICTIONARY
5
C
100
AcDbDictionary
3
ACAD_GROUP
350
D
3
ACAD_MLINESTYLE
350
17
0
DICTIONARY
5
D
100
AcDbDictionary
0
DICTIONARY
5
1A
330
C
100
AcDbDictionary
0
DICTIONARY
5
17
100
AcDbDictionary
0
ENDSEC
0
EOF
