G04 EAGLE Gerber RS-274X export*
G75*
%MOMM*%
%FSLAX34Y34*%
%LPD*%
%INBottom Copper*%
%IPPOS*%
%AMOC8*
5,1,8,0,0,1.08239X$1,22.5*%
G01*
G04 Define Apertures*
%ADD10C,1.422400*%
%ADD11C,1.930400*%
%ADD12C,1.790700*%
%ADD13C,1.980000*%
%ADD14C,1.260000*%
%ADD15C,0.812800*%
%ADD16C,0.756400*%
%ADD17C,1.270000*%
%ADD18C,0.609600*%
D10*
X104500Y166888D02*
X104500Y181112D01*
X129900Y181112D02*
X129900Y166888D01*
X155300Y166888D02*
X155300Y181112D01*
X180700Y181112D02*
X180700Y166888D01*
X206100Y166888D02*
X206100Y181112D01*
X231500Y181112D02*
X231500Y166888D01*
X805500Y753888D02*
X805500Y768112D01*
X830900Y768112D02*
X830900Y753888D01*
X856300Y753888D02*
X856300Y768112D01*
X881700Y768112D02*
X881700Y753888D01*
X907100Y753888D02*
X907100Y768112D01*
X932500Y768112D02*
X932500Y753888D01*
D11*
X121300Y386600D03*
X146700Y386600D03*
X172100Y386600D03*
X197500Y386600D03*
X222900Y386600D03*
X248300Y386600D03*
X273700Y386600D03*
X299100Y386600D03*
X324500Y386600D03*
X349900Y386600D03*
X375300Y386600D03*
X400700Y386600D03*
X426100Y386600D03*
X451500Y386600D03*
X476900Y386600D03*
X121300Y634300D03*
X146700Y634300D03*
X172100Y634300D03*
X197500Y634300D03*
X222900Y634300D03*
X248300Y634300D03*
X273700Y634300D03*
X299100Y634300D03*
X324500Y634300D03*
X349900Y634300D03*
X375300Y634300D03*
X400700Y634300D03*
X426100Y634300D03*
X451500Y634300D03*
X476900Y634300D03*
D12*
X476000Y206254D02*
X476000Y188347D01*
X526000Y188347D02*
X526000Y206254D01*
X600000Y206254D02*
X600000Y188347D01*
X650000Y188347D02*
X650000Y206254D01*
X349000Y204254D02*
X349000Y186347D01*
X399000Y186347D02*
X399000Y204254D01*
X716000Y206254D02*
X716000Y188347D01*
X766000Y188347D02*
X766000Y206254D01*
D13*
X626800Y417100D03*
X626800Y442500D03*
X626800Y467900D03*
X626800Y493300D03*
X626800Y518700D03*
X626800Y544100D03*
X626800Y569500D03*
X626800Y594900D03*
X779200Y594900D03*
X779200Y569500D03*
X779200Y544100D03*
X779200Y518700D03*
X779200Y493300D03*
X779200Y467900D03*
X779200Y442500D03*
X779200Y417100D03*
D12*
X676000Y743347D02*
X676000Y761254D01*
X726000Y761254D02*
X726000Y743347D01*
X835000Y205254D02*
X835000Y187347D01*
X885000Y187347D02*
X885000Y205254D01*
D14*
X693800Y260000D03*
X766200Y260000D03*
X796887Y259916D03*
X869287Y259916D03*
X403800Y720000D03*
X476200Y720000D03*
X283800Y720000D03*
X356200Y720000D03*
D10*
X861900Y467112D02*
X861900Y452888D01*
X887300Y452888D02*
X887300Y467112D01*
X912700Y467112D02*
X912700Y452888D01*
X938100Y452888D02*
X938100Y467112D01*
D15*
X626800Y417100D02*
X610000Y433900D01*
X610000Y527300D01*
X626800Y544100D01*
D16*
X870000Y320713D03*
D17*
X840713Y350000D01*
X840000Y350000D01*
D16*
X840000Y350000D03*
D15*
X175900Y220000D02*
X129900Y174000D01*
X175900Y220000D02*
X380000Y220000D01*
X399000Y201000D01*
X399000Y195300D01*
X240000Y580000D02*
X222900Y597100D01*
X222900Y634300D01*
X282700Y580000D02*
X452004Y410696D01*
X282700Y580000D02*
X240000Y580000D01*
X452004Y410696D02*
X474357Y410696D01*
X492140Y337860D02*
X510000Y320000D01*
X492140Y392913D02*
X474357Y410696D01*
X492140Y392913D02*
X492140Y337860D01*
X510000Y320000D02*
X670000Y320000D01*
D16*
X670000Y320000D03*
X690000Y400000D03*
D15*
X690000Y510000D01*
X700000Y520000D01*
D16*
X700000Y520000D03*
D18*
X779200Y442500D02*
X760000Y423300D01*
X760000Y350000D01*
X750000Y340000D01*
X540000Y340000D01*
X520000Y360000D01*
D16*
X520000Y360000D03*
X520814Y400000D03*
D18*
X520080Y400734D01*
X520080Y404486D01*
X520000Y404566D01*
X520000Y420000D01*
X340000Y600000D01*
X320000Y600000D01*
X299100Y620900D01*
X299100Y634300D01*
D15*
X270000Y600000D02*
X248300Y621700D01*
X248300Y634300D01*
X456002Y420348D02*
X478355Y420348D01*
X456002Y420348D02*
X276350Y600000D01*
X270000Y600000D01*
X501792Y348208D02*
X520000Y330000D01*
X501792Y396911D02*
X478355Y420348D01*
X501792Y396911D02*
X501792Y348208D01*
X520000Y330000D02*
X700000Y330000D01*
D16*
X700000Y330000D03*
X710000Y400000D03*
D15*
X710000Y480000D01*
X750000Y520000D01*
D16*
X750000Y520000D03*
D15*
X273700Y616300D02*
X273700Y634300D01*
X273700Y616300D02*
X460000Y430000D01*
X511444Y388556D02*
X520000Y380000D01*
X650000Y500000D02*
X694100Y544100D01*
X779200Y544100D01*
X650000Y500000D02*
X650000Y390000D01*
X640000Y380000D01*
X520000Y380000D01*
X511444Y388556D02*
X511444Y400909D01*
X482353Y430000D02*
X460000Y430000D01*
X482353Y430000D02*
X511444Y400909D01*
D18*
X720000Y434100D02*
X779200Y493300D01*
X720000Y434100D02*
X720000Y370000D01*
X710000Y360000D01*
X570000Y360000D01*
D16*
X570000Y360000D03*
X560000Y400000D03*
D18*
X560000Y440000D01*
X380000Y620000D01*
X360000Y620000D01*
X349900Y630100D01*
X349900Y634300D01*
X777900Y467900D02*
X779200Y467900D01*
X777900Y467900D02*
X740000Y430000D01*
X740000Y360000D01*
X730000Y350000D01*
X550000Y350000D01*
X540000Y360000D01*
D16*
X540000Y360000D03*
X540000Y400000D03*
D18*
X540000Y430000D01*
X360000Y610000D01*
X330000Y610000D01*
X320000Y620000D01*
X320000Y630000D01*
X324300Y634300D01*
X324500Y634300D01*
D16*
X580000Y410000D03*
D15*
X610000Y410000D01*
D16*
X610000Y410000D03*
D18*
X932500Y592500D02*
X932500Y761000D01*
X932500Y592500D02*
X920000Y580000D01*
X900000Y580000D01*
X90000Y670000D02*
X90000Y300000D01*
X90000Y670000D02*
X140000Y720000D01*
X283800Y720000D01*
X840000Y520000D02*
X900000Y580000D01*
X840000Y520000D02*
X840000Y410000D01*
X930000Y320000D01*
X930000Y290000D01*
X920000Y280000D01*
X110000Y280000D01*
X90000Y300000D01*
X383800Y700000D02*
X403800Y720000D01*
X383800Y700000D02*
X140000Y700000D01*
X830000Y550000D02*
X830000Y400000D01*
X830000Y550000D02*
X900000Y620000D01*
X900000Y753900D01*
X907100Y761000D01*
X900000Y300000D02*
X120000Y300000D01*
X900000Y300000D02*
X910000Y310000D01*
X910000Y320000D01*
X830000Y400000D01*
X140000Y700000D02*
X107076Y667076D01*
X107076Y312924D01*
X120000Y300000D01*
X857300Y430000D02*
X887300Y460000D01*
X857300Y430000D02*
X850000Y430000D01*
D16*
X850000Y430000D03*
X820000Y430000D03*
D18*
X820000Y390000D01*
X370000Y310000D02*
X350000Y330000D01*
X350000Y361100D01*
X324500Y386600D01*
X370000Y310000D02*
X880000Y310000D01*
X890000Y320000D01*
X820000Y390000D01*
X688425Y250000D02*
X689297Y249128D01*
X755328Y249128D02*
X766200Y260000D01*
X755328Y249128D02*
X689297Y249128D01*
X688425Y250000D02*
X390000Y250000D01*
X380000Y260000D01*
X380000Y270000D01*
D16*
X380000Y270000D03*
X380000Y320000D03*
D18*
X370000Y330000D01*
X370000Y366500D01*
X349900Y386600D01*
M02*
