M48
;GenerationSoftware,Autodesk,EAGLE,9.7.0*%
;CreationDate,2026-04-07T00:10:52Z*%
FMAT,2
ICI,OFF
METRIC,TZ,000.000
T6C0.350
T5C0.660
T4C0.914
T3C1.000
T2C1.194
T1C1.320
%
G90
M71
T1
X77920Y41710
X77920Y44250
X77920Y46790
X77920Y49330
X77920Y51870
X77920Y54410
X77920Y56950
X77920Y59490
X62680Y59490
X62680Y56950
X62680Y54410
X62680Y51870
X62680Y49330
X62680Y46790
X62680Y44250
X62680Y41710
T2
X34900Y19530
X65000Y19730
X60000Y19730
X47600Y19730
X52600Y19730
X83500Y19630
X72600Y75230
X67600Y75230
X88500Y19630
X76600Y19730
X71600Y19730
X39900Y19530
T3
X40070Y63430
X42610Y63430
X45150Y63430
X47690Y63430
X22290Y63430
X12130Y38660
X14670Y38660
X17210Y38660
X19750Y38660
X22290Y38660
X24830Y38660
X27370Y38660
X32450Y38660
X34990Y38660
X37530Y38660
X40070Y38660
X42610Y38660
X45150Y38660
X47690Y38660
X12130Y63430
X14670Y63430
X17210Y63430
X19750Y63430
X29910Y38660
X24830Y63430
X27370Y63430
X29910Y63430
X32450Y63430
X34990Y63430
X37530Y63430
T4
X20610Y17400
X10450Y17400
X93810Y46000
X91270Y46000
X88730Y46000
X93250Y76100
X90710Y76100
X88170Y76100
X85630Y76100
X83090Y76100
X80550Y76100
X23150Y17400
X86190Y46000
X18070Y17400
X15530Y17400
X12990Y17400
T5
X79689Y25992
X86929Y25992
X40380Y72000
X47620Y72000
X35620Y72000
X28380Y72000
X76620Y26000
X69380Y26000
T6
X84000Y35000
X67000Y32000
X69000Y40000
X70000Y52000
X54000Y36000
X38000Y32000
X52000Y36000
X87000Y32071
X54000Y40000
X61000Y41000
X56000Y40000
X57000Y36000
X75000Y52000
X71000Y40000
X58000Y41000
X70000Y33000
X85000Y43000
X82000Y43000
X38000Y27000
X52081Y40000
M30